<?xml version="1.0" encoding="iso-8859-1"?>
<!-- Uploaded to: SVG Repo, www.svgrepo.com, Generator: SVG Repo Mixer Tools -->
<svg version="1.1" id="Layer_1" xmlns="http://www.w3.org/2000/svg" xmlns:xlink="http://www.w3.org/1999/xlink" 
	 viewBox="0 0 512 512" xml:space="preserve">
<polygon style="fill:#E54728;" points="191.147,59.121 191.147,113.821 165.098,113.821 114.288,113.821 114.288,59.121 "/>
<rect x="191.143" y="59.121" style="fill:#F95428;" width="44.933" height="54.7"/>
<polygon style="fill:#808080;" points="277.797,113.821 277.797,225.054 264.068,225.054 263.217,242.401 165.098,242.401 
	165.098,113.821 191.147,113.821 236.08,113.821 "/>
<polygon style="fill:#666666;" points="165.098,113.821 165.098,242.401 101.813,242.401 101.813,500.174 17.906,500.174 
	17.906,113.821 114.288,113.821 "/>
<polygon style="fill:#CCCCCC;" points="263.217,242.401 250.6,500.174 101.813,500.174 101.813,242.401 165.098,242.401 "/>
<polygon style="fill:#E54728;" points="306.507,225.054 293.038,500.174 274.793,500.174 250.6,500.174 263.217,242.401 
	264.068,225.054 277.797,225.054 "/>
<polygon style="fill:#F95428;" points="480.634,225.054 494.09,500.174 408.221,500.174 293.038,500.174 306.507,225.054 "/>
<g>
	<path style="fill:#333333;" d="M428.747,342.138c-4.619-4.616-12.104-4.616-16.723,0L361.1,393.061
		c-4.617,4.617-4.617,12.105,0,16.723c2.309,2.308,5.335,3.463,8.361,3.463s6.052-1.155,8.361-3.463l50.923-50.923
		C433.364,354.243,433.364,346.755,428.747,342.138z"/>
	<path style="fill:#333333;" d="M492.444,224.476c-0.309-6.298-5.504-11.246-11.81-11.246H441.87v-13.391
		c0-26.635-21.668-48.303-48.303-48.303c-7.597,0-14.788,1.769-21.189,4.907c-6.531-3.207-13.758-4.912-21.252-4.912
		c-26.633,0-48.303,21.668-48.303,48.303v13.396h-13.203v-99.407c0-6.531-5.295-11.824-11.824-11.824h-29.891V59.122
		c0-6.531-5.295-11.824-11.824-11.824h-0.26c1.313-3.701,2.034-7.679,2.034-11.824C237.852,15.913,221.939,0,202.379,0
		c-9.079,0-17.368,3.431-23.649,9.061C172.45,3.431,164.161,0,155.082,0c-19.56,0-35.473,15.913-35.473,35.473
		c0,4.146,0.721,8.123,2.034,11.824h-7.355c-6.529,0-11.824,5.294-11.824,11.824v42.876H17.909c-6.529,0-11.824,5.294-11.824,11.824
		v386.353c0,6.531,5.295,11.824,11.824,11.824h476.182c3.236,0,6.331-1.327,8.563-3.67c2.231-2.344,3.405-5.5,3.247-8.732
		L492.444,224.476z M418.221,199.838v13.391h-18.793v-13.396c0-8.803-2.341-17.242-6.719-24.606
		c0.287-0.009,0.568-0.044,0.857-0.044C407.161,175.184,418.221,186.244,418.221,199.838z M368.914,199.838
		c0-4.565,1.27-8.831,3.442-12.501c2.216,3.747,3.424,8.023,3.424,12.496v13.396h-6.866V199.838z M351.126,175.18
		c0.304,0,0.602,0.033,0.903,0.044c-4.291,7.214-6.765,15.63-6.765,24.615v13.391h-18.793v-13.396
		C326.473,186.239,337.533,175.18,351.126,175.18z M275.324,236.879h18.761l-12.302,251.472h-18.761L275.324,236.879z
		 M265.971,213.23h-1.907c-6.306,0-11.503,4.949-11.81,11.246l-0.298,6.101h-75.032v-104.93h89.049v87.583H265.971z
		 M202.971,101.998V70.947h21.284v31.051H202.971z M202.38,23.649c6.52,0,11.824,5.304,11.824,11.824S208.9,47.298,202.38,47.298
		h-11.824V35.473C190.556,28.953,195.861,23.649,202.38,23.649z M143.258,35.473c0-6.52,5.304-11.824,11.824-11.824
		c6.52,0,11.824,5.304,11.824,11.824v11.824h-11.824C148.563,47.298,143.258,41.993,143.258,35.473z M126.112,70.947h52.619h0.591
		v31.051h-14.225h-38.985V70.947z M89.988,242.402v245.949H29.733V125.647h123.54v104.93h-51.46
		C95.283,230.577,89.988,235.871,89.988,242.402z M113.637,254.226h137.16l-11.454,234.125H113.637V254.226z M408.221,488.351
		H305.46l12.301-251.472h27.504v17.678c0,6.531,5.295,11.824,11.824,11.824s11.824-5.294,11.824-11.824v-17.678h49.307v17.678
		c0,6.531,5.295,11.824,11.824,11.824s11.824-5.294,11.824-11.824v-17.678h27.504l12.301,251.472H408.221z"/>
	<circle style="fill:#333333;" cx="420.384" cy="401.429" r="11.824"/>
	<circle style="fill:#333333;" cx="369.456" cy="350.501" r="11.824"/>
</g>
</svg>